<?xml version="1.0" encoding="utf-8"?>
<!-- created manually  -->
<!-- https://www.grundriss-butler.de/wie-zeichne-ich -->
<!-- https://developer.mozilla.org/en-US/docs/Web/SVG/Tutorial/Patterns -->
<!DOCTYPE svg PUBLIC "-//W3C//DTD SVG 1.1//EN" "http://www.w3.org/Graphics/SVG/1.1/DTD/svg11.dtd">
<svg version="1.1" xmlns="http://www.w3.org/2000/svg" xmlns:xlink="http://www.w3.org/1999/xlink"
        x="0px" y="0px" width="1500" height="1434"
        viewBox="0 0 1550 1434"
	    xml:space="preserve">

    <defs>

        <path id="lightbulb" transform="scale ( 2 )" d="M12,2A7,7 0 0,0 5,9C5,11.38 6.19,13.47 8,14.74V17A1,1 0 0,0 9,18H15A1,1 0 0,0 16,17V14.74C17.81,13.47 19,11.38 19,9A7,7 0 0,0 12,2M9,21A1,1 0 0,0 10,22H14A1,1 0 0,0 15,21V20H9V21Z" />
        <path id="lightbulb-outline" transform="scale ( 2 )" d="M12,2A7,7 0 0,1 19,9C19,11.38 17.81,13.47 16,14.74V17A1,1 0 0,1 15,18H9A1,1 0 0,1 8,17V14.74C6.19,13.47 5,11.38 5,9A7,7 0 0,1 12,2M9,21V20H15V21A1,1 0 0,1 14,22H10A1,1 0 0,1 9,21M12,4A5,5 0 0,0 7,9C7,11.05 8.23,12.81 10,13.58V16H14V13.58C15.77,12.81 17,11.05 17,9A5,5 0 0,0 12,4Z" />
        <path id="rooftile" d="M91.4,10.35h-8.61c-0.61,0-1.1,0.49-1.1,1.1v0.91H64.9v-0.91c0-0.61-0.49-1.1-1.1-1.1h-8.61c-0.61,0-1.1,0.49-1.1,1.1v0.91  H37.31v-0.91c0-0.61-0.49-1.1-1.1-1.1h-8.61c-0.61,0-1.1,0.49-1.1,1.1v0.91H8.6c-0.61,0-1.1,0.49-1.1,1.1V38.5v25.02c0,0,0,0,0,0  v25.02c0,0.61,0.49,1.1,1.1,1.1h18.99c0.61,0,1.1-0.49,1.1-1.1v-0.91h6.4v0.91c0,0.61,0.49,1.1,1.1,1.1h18.99  c0.61,0,1.1-0.49,1.1-1.1v-0.91h6.4v0.91c0,0.61,0.49,1.1,1.1,1.1h18.99c0.61,0,1.1-0.49,1.1-1.1v-0.91h6.4v0.91  c0,0.61,0.49,1.1,1.1,1.1c0.5,0,0.91-0.33,1.05-0.78c0.03-0.1,0.05-0.21,0.05-0.33v-2.02V63.52V61.5V38.5v-2.02V11.46  C92.5,10.85,92.01,10.35,91.4,10.35z M26.49,86.53v0.91H9.71V64.62h16.78V86.53z M26.49,61.5v0.91H9.71V39.6h16.78V61.5z   M26.49,36.48v0.91H9.71V14.57h16.78V36.48z M35.1,63.52L35.1,63.52v21.91h-6.4V63.52v0v-0.91h6.4V63.52z M35.1,38.5V60.4h-6.4V38.5  v-0.91h6.4V38.5z M35.1,13.47v21.91h-6.4V13.47v-0.91h6.4V13.47z M54.08,86.53v0.91H37.31v-0.91V64.62h16.78V86.53z M54.08,61.5  v0.91H37.31V61.5V39.6h16.78V61.5z M54.08,36.48v0.91H37.31v-0.91V14.57h16.78V36.48z M62.69,63.52L62.69,63.52v21.91h-6.4V63.52v0  v-0.91h6.4V63.52z M62.69,38.5V60.4h-6.4V38.5v-0.91h6.4V38.5z M62.69,13.47v21.91h-6.4V13.47v-0.91h6.4V13.47z M81.68,86.53v0.91  H64.9v-0.91V64.62h16.78V86.53z M81.68,61.5v0.91H64.9V61.5V39.6h16.78V61.5z M81.68,36.48v0.91H64.9v-0.91V14.57h16.78V36.48z   M90.29,63.52v21.91h-6.4V63.52v0v-0.91h6.4V63.52z M90.29,38.5V60.4h-6.4V38.5v-0.91h6.4V38.5z M90.29,35.38h-6.4V13.47v-0.91h6.4  V35.38z"/>

        <g id="window101" stroke="0.5" fill="none" >
            <rect x="0" y="0" width="101" height="27" stroke="grey" />
            <rect x="0.5" y="10.5" width="100" height="4" fill="lightblue" />
        </g>
        <g id="window310" stroke="0.5" fill="none" >
            <rect x="0" y="0" width="310" height="27" stroke="grey" />
            <rect x="0.5" y="10.5" width="310" height="4" fill="lightblue" />
            <rect x="101" y="10.5" width="4" height="4" fill="grey" />
            <rect x="202" y="10.5" width="4" height="4" fill="grey" />
        </g>

        <g id="roofpart_west" >
            <use x="0" y="0" href="#rooftile" />
            <use x="83" y="0" href="#rooftile" />
            <use x="166" y="0" href="#rooftile" />
            <use x="249" y="0" href="#rooftile" />
            <use x="332" y="0" href="#rooftile" />
            <use x="415" y="0" href="#rooftile" />
            <use x="0" y="75" href="#rooftile" />
            <use x="83" y="75" href="#rooftile" />
            <use x="166" y="75" href="#rooftile" />
            <use x="249" y="75" href="#rooftile" />
            <use x="332" y="75" href="#rooftile" />
            <use x="415" y="75" href="#rooftile" />
        </g>
        <g id="roofpart_east" >
            <use x="0" y="0" href="#rooftile" />
            <use x="83" y="0" href="#rooftile" />
            <use x="166" y="0" href="#rooftile" />
            <use x="249" y="0" href="#rooftile" />
            <use x="332" y="0" href="#rooftile" />
            <use x="387.2" y="0" href="#rooftile" />
            <use x="0" y="75" href="#rooftile" />
            <use x="83" y="75" href="#rooftile" />
            <use x="166" y="75" href="#rooftile" />
            <use x="249" y="75" href="#rooftile" />
            <use x="332" y="75" href="#rooftile" />
            <use x="387.2" y="75" href="#rooftile" />
        </g>

    </defs>

    <g id="frame">
		<rect x="0" y="0" width="1494" height="1434" stroke="blue" stroke-width="1" fill="none"/>
    </g>

    <g id="firstlevel" transform="translate ( 300, 0 )" >

        <g id="walls_under roof"  stroke="lightgrey" fill="lightgrey" stroke-width="1" >
            <!-- east -->
            <rect x="0" y="60" width="442" height="27" />
            <rect x="415" y="0" width="27" height="60" />
            <rect x="752" y="0" width="27" height="60" />
            <rect x="752" y="60" width="442" height="27" />
            <rect x="427" y="87" width="15" height="91" />
            <rect x="752" y="87" width="15" height="91" />
            <!-- north -->
            <rect x="0" y="60" width="27" height="118" />
            <rect x="0" y="916" width="27" height="118" />
            <!-- south -->
            <rect x="1167" y="60" width="27" height="118" />
            <rect x="1167" y="916" width="27" height="118" />
            <!-- west -->
            <rect x="0" y="1007" width="454" height="27" />
            <rect x="427" y="916" width="27" height="118" />
            <rect x="740" y="916" width="27" height="118" />
            <rect x="740" y="1007" width="454" height="27" />
        </g>

        <g id="outer_walls"  stroke="black" fill="black" stroke-width="1" >
            <!-- north -->
            <rect x="0" y="178" width="27" height="168" />
            <rect x="0" y="447" width="27" height="200" />
            <rect x="0" y="748" width="27" height="168" />
            <!-- south -->
            <rect x="1167" y="178" width="27" height="168" />
            <rect x="1167" y="447" width="27" height="200" />
            <rect x="1167" y="748" width="27" height="168" />
            <!-- west -->
            <rect x="427" y="867" width="27" height="49" />
            <rect x="427" y="867" width="340" height="27" />
            <rect x="740" y="867" width="27" height="49" />
        </g>

        <g id="inner_plaster_walls" stroke="black" fill="black" stroke-width="1" >
            <rect x="0" y="593" width="442" height="8" />
            <rect x="752" y="532" width="442" height="8" />
        </g>

        <g id="inner_main_walls" stroke="black" fill="black" stroke-width="1" >
            <!-- inner main walls -->
            <rect x="427" y="178" width="15" height="197" />
            <rect x="427" y="463" width="15" height="146" />
            <rect x="427" y="684" width="15" height="212" />
            <rect x="752" y="178" width="15" height="197" />
            <rect x="752" y="463" width="15" height="146" />
            <rect x="752" y="697" width="15" height="200" />
        </g>

        <g id="jamb_wall" stroke="black" fill="black" stroke-width="1" >
            <rect x="0" y="178" width="442" height="3" />
            <rect x="752" y="178" width="442" height="3" />
            <rect x="0" y="913" width="442" height="3" />
            <rect x="752" y="913" width="442" height="3" />
        </g>

        <g id="gallery" stroke="black" fill="black" stroke-width="1" >
            <rect x="427" y="347" width="340" height="3" />
            <rect x="427" y="705" width="340" height="3" />
        </g>

        <g id="doors" stroke="black" fill="none" stroke-width="1" >
            <path d="M 442 463 h -88 a 88 88 90 0 1 88 -88" />
            <path d="M 442 609 h -76 a 76 76 90 0 0 76 76" />
            <path d="M 752 463 h 88 a 88 88 90 0 0 -88 -88" />
            <path d="M 752 609 h 88 a 88 88 90 0 1 -88 88" />
        </g>

        <g id="windows" stroke="black" fill="none" stroke-width="0.2" >
            <use transform="translate ( 27, 346 ) rotate ( 90 )" href="#window101" />
            <use transform="translate ( 27, 647 ) rotate ( 90 )" href="#window101" />
            <use transform="translate ( 1167, 447 ) rotate ( -90 )" href="#window101" />
            <use transform="translate ( 1167, 748 ) rotate ( -90 )" href="#window101" />
            <use transform="translate(442,0)" href="#window310" />
        </g>

        <g id ="stairs">
        </g>

        <use id="light.shelly_bath_socket" x="190" y="760" href="#lightbulb" />
        <use id="light.sonoff_gallery1_socket" x="440" y="540" href="#lightbulb" />
        <use id="light.sonoff_corridor_lamp" x="40" y="460" href="#lightbulb" />
        <use id="light.sonoff_bedroom_socket" x="940" y="550" href="#lightbulb" />

        <text id="sensor.thermostat_arbeitszimmer_temperature" x="340" y="335" class="thermostat-text" ><tspan>°C</tspan></text>
        <text id="sensor.thermostat_arbeitszimmer_humidity" x="340" y="360" class="thermostat-text" ><tspan>%</tspan></text>
        <text id="sensor.thermostat_bad_temperature" x="340" y="630" class="thermostat-text" ><tspan>°C</tspan></text>
        <text id="sensor.thermostat_bad_humidity" x="340" y="655" class="thermostat-text" ><tspan>%</tspan></text>
        <text id="sensor.thermostat_galerie_temperature" x="455" y="500" class="thermostat-text" ><tspan>°C</tspan></text>
        <text id="sensor.thermostat_galerie_humidity" x="455" y="525" class="thermostat-text" ><tspan>%</tspan></text>
        <text id="sensor.thermostat_kinderzimmer_temperature" x="780" y="340" class="thermostat-text" ><tspan>°C</tspan></text>
        <text id="sensor.thermostat_kinderzimmer_humidity" x="780" y="365" class="thermostat-text" ><tspan>%</tspan></text>
        <text id="sensor.thermostat_schlafzimmer_temperature" x="780" y="725" class="thermostat-text" ><tspan>°C</tspan></text>
        <text id="sensor.thermostat_schlafzimmer_humidity" x="780" y="750" class="thermostat-text" ><tspan>%</tspan></text>

        <g id="roof" stroke="none" fill="lightgrey" stroke-width="0.5" >
            <use transform="translate ( -38, 13)" href="#roofpart_east" />
            <use transform="translate ( 744, 13)" href="#roofpart_east" />
            <use transform="translate ( -38, 906 )" href="#roofpart_west" />
            <use transform="translate ( 725, 906 )" href="#roofpart_west" />
        </g>

    </g>

</svg>