<?xml version="1.0" encoding="utf-8"?>
<!-- created manually  -->
<!-- https://www.grundriss-butler.de/wie-zeichne-ich -->
<!-- https://developer.mozilla.org/en-US/docs/Web/SVG/Tutorial/Patterns -->
<!DOCTYPE svg PUBLIC "-//W3C//DTD SVG 1.1//EN" "http://www.w3.org/Graphics/SVG/1.1/DTD/svg11.dtd">
<svg version="1.1" xmlns="http://www.w3.org/2000/svg" xmlns:xlink="http://www.w3.org/1999/xlink"
        x="0px" y="0px" width="1500" height="1434"
        viewBox="0 0 1800 1835"
	    xml:space="preserve">

    <defs>

        <path id="lightbulb" transform="scale ( 2 )" d="M12,2A7,7 0 0,0 5,9C5,11.38 6.19,13.47 8,14.74V17A1,1 0 0,0 9,18H15A1,1 0 0,0 16,17V14.74C17.81,13.47 19,11.38 19,9A7,7 0 0,0 12,2M9,21A1,1 0 0,0 10,22H14A1,1 0 0,0 15,21V20H9V21Z" />
        <path id="lightbulb-outline" transform="scale ( 2 )" d="M12,2A7,7 0 0,1 19,9C19,11.38 17.81,13.47 16,14.74V17A1,1 0 0,1 15,18H9A1,1 0 0,1 8,17V14.74C6.19,13.47 5,11.38 5,9A7,7 0 0,1 12,2M9,21V20H15V21A1,1 0 0,1 14,22H10A1,1 0 0,1 9,21M12,4A5,5 0 0,0 7,9C7,11.05 8.23,12.81 10,13.58V16H14V13.58C15.77,12.81 17,11.05 17,9A5,5 0 0,0 12,4Z" />
        <path id="rooftile" d="M91.4,10.35h-8.61c-0.61,0-1.1,0.49-1.1,1.1v0.91H64.9v-0.91c0-0.61-0.49-1.1-1.1-1.1h-8.61c-0.61,0-1.1,0.49-1.1,1.1v0.91  H37.31v-0.91c0-0.61-0.49-1.1-1.1-1.1h-8.61c-0.61,0-1.1,0.49-1.1,1.1v0.91H8.6c-0.61,0-1.1,0.49-1.1,1.1V38.5v25.02c0,0,0,0,0,0  v25.02c0,0.61,0.49,1.1,1.1,1.1h18.99c0.61,0,1.1-0.49,1.1-1.1v-0.91h6.4v0.91c0,0.61,0.49,1.1,1.1,1.1h18.99  c0.61,0,1.1-0.49,1.1-1.1v-0.91h6.4v0.91c0,0.61,0.49,1.1,1.1,1.1h18.99c0.61,0,1.1-0.49,1.1-1.1v-0.91h6.4v0.91  c0,0.61,0.49,1.1,1.1,1.1c0.5,0,0.91-0.33,1.05-0.78c0.03-0.1,0.05-0.21,0.05-0.33v-2.02V63.52V61.5V38.5v-2.02V11.46  C92.5,10.85,92.01,10.35,91.4,10.35z M26.49,86.53v0.91H9.71V64.62h16.78V86.53z M26.49,61.5v0.91H9.71V39.6h16.78V61.5z   M26.49,36.48v0.91H9.71V14.57h16.78V36.48z M35.1,63.52L35.1,63.52v21.91h-6.4V63.52v0v-0.91h6.4V63.52z M35.1,38.5V60.4h-6.4V38.5  v-0.91h6.4V38.5z M35.1,13.47v21.91h-6.4V13.47v-0.91h6.4V13.47z M54.08,86.53v0.91H37.31v-0.91V64.62h16.78V86.53z M54.08,61.5  v0.91H37.31V61.5V39.6h16.78V61.5z M54.08,36.48v0.91H37.31v-0.91V14.57h16.78V36.48z M62.69,63.52L62.69,63.52v21.91h-6.4V63.52v0  v-0.91h6.4V63.52z M62.69,38.5V60.4h-6.4V38.5v-0.91h6.4V38.5z M62.69,13.47v21.91h-6.4V13.47v-0.91h6.4V13.47z M81.68,86.53v0.91  H64.9v-0.91V64.62h16.78V86.53z M81.68,61.5v0.91H64.9V61.5V39.6h16.78V61.5z M81.68,36.48v0.91H64.9v-0.91V14.57h16.78V36.48z   M90.29,63.52v21.91h-6.4V63.52v0v-0.91h6.4V63.52z M90.29,38.5V60.4h-6.4V38.5v-0.91h6.4V38.5z M90.29,35.38h-6.4V13.47v-0.91h6.4  V35.38z"/>
        <path id="lightchain_part" transform="scale ( 0.2 ) translate ( -70, -200 )"  d="M 267.5 220.218 C 261.04044 225.91768 256.35496 233.5221 249.30647 238.70275 C 224.26374 260.12848 186.68354 265.23975 156.96925 250.88637 C 145.51922 245.57693 135.79713 237.34532 126.924 228.5 C 121.89567 228.73665 116.47593 228.02814 111.69138 228.85349 C 109.64562 231.4558 105.52568 233.17994 106.45728 237.0407 C 106.26886 250.26978 106.08043 263.49891 105.892 276.728 C 94.462421 281.46366 86.476768 293.78339 88.040861 306.28504 C 88.510606 320.05456 101.32372 331.30398 114.96833 330.8498 C 118.53129 331.03957 122.20515 331.8411 125.33111 329.61991 C 138.43979 324.65654 146.46714 309.68674 142.69771 296.04688 C 140.3897 287.34361 133.47115 279.81511 125 276.757 C 125.32772 269.05272 124.16773 261.00503 125.91693 253.57514 C 138.83319 263.1834 153.20916 271.43344 169.1455 274.88725 C 172.99449 278.10275 183.18573 274.38298 184 279 L 184 326.757 C 165.56115 332.56248 159.93019 359.38835 173.92182 372.52838 C 186.12068 385.82991 210.56513 382.35993 218.49996 366.1482 C 221.74845 359.68221 221.756 352.03726 221.23002 345.05707 C 217.42372 337.27331 211.92455 328.81461 202.966 326.775 L 203.5 277.633 C 224.36398 274.97676 244.56756 267.02102 260.98177 253.75472 C 263.20716 252.43749 261.43098 259.04213 262 261.004 L 262 292.05 C 249.4866 296.40992 241.8942 310.54186 244.39549 323.47237 C 245.94286 333.39428 253.55155 341.10701 262.65917 344.67094 C 266.76549 347.2162 271.97402 345.58465 276.5268 345.66261 C 294.20106 343.41679 305.24241 321.85639 297.11561 306.07623 C 294.13129 299.04341 287.64568 294.66802 281 291.503 C 281.15179 278.6711 280.57701 265.7951 281.582 253 C 297.36987 265.56346 316.39045 274.19475 336.44687 276.96775 C 340.62768 276.44346 341.04586 279.14912 340.55549 282.63469 C 340.71589 297.06644 340.87551 311.49824 341.035 325.93 C 330.14076 330.61731 321.05324 341.38663 322.18166 353.8155 C 321.70057 373.02698 345.0402 387.40653 361.9622 378.16965 C 375.71465 371.82102 382.56491 353.49483 374.61371 340.13336 C 371.87221 333.0393 364.38658 329.21026 358.97053 325.44103 C 359.14649 309.50103 359.323 293.56099 359.5 277.621 C 379.61928 275.0908 399.29507 267.8639 415.24819 255.14355 C 421.66637 249.81852 417.76964 264.44068 418.98998 268.38456 C 419.01003 276.09067 418.99566 283.79686 419 291.503 C 409.81541 295.46119 401.88725 303.23052 400.57325 313.54725 C 397.14659 330.39743 412.41622 347.61091 429.59 345.99228 C 432.86297 346.32026 435.96919 345.93901 438.70645 343.9886 C 452.64383 338.64508 459.92499 321.43138 454.0393 307.71341 C 451.04701 300.55772 445.09437 294.9565 438 291.959 L 438 253.004 C 454.35471 266.22545 474.28104 274.74914 495.15162 277.40583 C 498.03516 278.09175 495.85269 283.109 496.58693 285.63253 L 497.034 326.775 C 487.89846 328.95634 481.86776 337.7815 478.54987 346 C 478.35478 354.60142 478.21105 364.0649 484.61754 370.73971 C 494.7205 383.36449 516.24276 384.42059 526.75615 371.65637 C 537.16407 360.88089 536.23161 342.26229 525.093 332.37284 C 523.08168 328.10408 514.78139 329.1417 516 323.757 L 516 277 C 528.71177 276.84119 541.13755 272.38265 552.56592 267.09884 C 560.41218 263.89498 567.36272 257.43887 574.3558 253.83508 C 575.55324 261.38839 574.78634 269.12228 575 276.757 C 559.58701 281.95025 551.53109 301.66905 559.50021 316.03154 C 564.62901 326.68018 576.83181 332.82432 588.44987 330.59893 C 603.29199 329.62202 614.39098 314.45178 611.82656 300.01027 C 611.05662 289.70466 603.36683 280.73387 594.108 276.728 C 593.90533 262.49901 593.70266 248.26999 593.5 234.041 C 590.75082 231.95314 588.97775 227.51055 584.955 228.5 C 580.99636 228.73145 576.6757 228.03903 572.9401 228.83969 C 559.3786 242.37904 542.86848 253.80579 523.69303 257.28926 C 498.20303 262.60899 470.50828 255.84306 450.84644 238.61584 C 443.75359 233.31727 438.78422 225.7072 432.08059 220.1264 C 421.11656 215.81258 416.39339 231.01765 408.68526 235.88902 C 386.30427 257.11768 352.28175 264.7554 323.05644 254.72188 C 303.34127 249.01937 288.33451 234.24166 275.412 219 C 272.73493 219.01806 269.93881 218.90659 267.5 220.218 z " />

        <g id="schwibbogen" >
            <path d="M40,0 h10 a25,20 0 1,0 -50,0 h10 a15,10 0 0,1 30,0 z"/>
            <path d="M5,0 h40 v-7 h-40z" />
        </g>

        <g id="ceilinglight" transform="translate ( 20, 20 )" >
            <circle r="20" cx="0" cy="0" />
            <rect x="30" y ="0" width="15" height="2" transform="rotate ( 0 )" />
            <rect x="30" y ="0" width="15" height="2" transform="rotate ( 45 )" />
            <rect x="30" y ="0" width="15" height="2" transform="rotate ( 90 )" />
            <rect x="30" y ="0" width="15" height="2" transform="rotate ( 135 )" />
            <rect x="30" y ="0" width="15" height="2" transform="rotate ( 180 )" />
            <rect x="30" y ="0" width="15" height="2" transform="rotate ( 225 )" />
            <rect x="30" y ="0" width="15" height="2" transform="rotate ( 270 )" />
            <rect x="30" y ="0" width="15" height="2" transform="rotate ( 315 )" />
        </g>

        <g id="walllight_right" >
            <path d="M 0 0 v-20 a 20 20 0 0 1 0 40 v-20" />
            <rect x="30" y ="0" width="15" height="2" transform="rotate ( 0 )" />
            <rect x="30" y ="0" width="15" height="2" transform="rotate ( 45 )" />
            <rect x="30" y ="0" width="15" height="2" transform="rotate ( 315 )" />
        </g>

        <g id="walllight_left" >
            <path d="M 0 0 v-20 a 20 20 0 0 0 0 40 v-20" />
            <rect x="30" y ="0" width="15" height="2" transform="rotate ( 135 )" />
            <rect x="30" y ="0" width="15" height="2" transform="rotate ( 180 )" />
            <rect x="30" y ="0" width="15" height="2" transform="rotate ( 225 )" />
        </g>

        <g id="walllight_up" >
            <path d="M 0 0 h-20 a 20 20 0 0 1 40 0 h-20" />
            <rect x="30" y ="0" width="15" height="2" transform="rotate ( 225 )" />
            <rect x="30" y ="0" width="15" height="2" transform="rotate ( 270 )" />
            <rect x="30" y ="0" width="15" height="2" transform="rotate ( 315 )" />
        </g>

        <g id="star" >
            <path d="m50 21.496c0.64844 0 1.1719-0.52344 1.1719-1.1719v-10.805c0-0.64844-0.52344-1.1719-1.1719-1.1719s-1.1719 0.52344-1.1719 1.1719v10.809c0 0.64453 0.52344 1.168 1.1719 1.168z"/>
            <path d="m70.984 30.191c0.30078 0 0.60156-0.11328 0.82812-0.34375l7.6406-7.6445c0.45703-0.45703 0.45703-1.1992 0-1.6562s-1.1992-0.45703-1.6562 0l-7.6406 7.6445c-0.45703 0.45703-0.45703 1.1992 0 1.6562 0.22656 0.22656 0.52734 0.34375 0.82812 0.34375z"/>
            <path d="m90.48 48.828h-10.809c-0.64844 0-1.1719 0.52344-1.1719 1.1719s0.52344 1.1719 1.1719 1.1719h10.809c0.64844 0 1.1719-0.52344 1.1719-1.1719s-0.52344-1.1719-1.1719-1.1719z"/>
            <path d="m71.809 70.152c-0.45703-0.45703-1.1992-0.45703-1.6562 0-0.45703 0.45703-0.45703 1.1992 0 1.6562l7.6445 7.6445c0.23047 0.23047 0.52734 0.34375 0.82812 0.34375s0.60156-0.11328 0.82812-0.34375c0.45703-0.45703 0.45703-1.1992 0-1.6562z"/>
            <path d="m50 78.5c-0.64844 0-1.1719 0.52344-1.1719 1.1719v10.809c0 0.64844 0.52344 1.1719 1.1719 1.1719s1.1719-0.52344 1.1719-1.1719v-10.809c0-0.64844-0.52734-1.1719-1.1719-1.1719z"/>
            <path d="m28.188 70.152-7.6406 7.6445c-0.45703 0.45703-0.45703 1.1992 0 1.6562 0.23047 0.22656 0.52734 0.34375 0.82812 0.34375s0.60156-0.11328 0.82812-0.34375l7.6406-7.6445c0.45703-0.45703 0.45703-1.1992 0-1.6562-0.45703-0.45703-1.1992-0.45703-1.6562 0z"/>
            <path d="m21.5 50c0-0.64844-0.52344-1.1719-1.1719-1.1719h-10.809c-0.64844 0-1.1719 0.52344-1.1719 1.1719s0.52344 1.1719 1.1719 1.1719h10.809c0.64453 0 1.1719-0.52734 1.1719-1.1719z"/>
            <path d="m28.188 29.844c0.23047 0.23047 0.52734 0.34375 0.82812 0.34375s0.60156-0.11328 0.82812-0.34375c0.45703-0.45703 0.45703-1.1992 0-1.6562l-7.6445-7.6406c-0.45703-0.45703-1.1992-0.45703-1.6562 0s-0.45703 1.1992 0 1.6562z"/>
            <path d="m70.246 61.688c0.26172-0.45312 0.19141-1.0234-0.17188-1.4023l-9.9609-10.289 9.9609-10.289c0.36328-0.375 0.43359-0.94922 0.17188-1.4023-0.26172-0.45313-0.78906-0.67578-1.3008-0.55078l-13.891 3.4805-3.9297-13.77c-0.14453-0.50391-0.60156-0.85156-1.125-0.85156s-0.98438 0.34766-1.125 0.85156l-3.9297 13.77-13.891-3.4805c-0.50781-0.125-1.0391 0.097656-1.3008 0.55078-0.26172 0.45312-0.19141 1.0234 0.17188 1.4023l9.9609 10.289-9.9609 10.293c-0.36328 0.375-0.43359 0.94922-0.17188 1.4023 0.26172 0.45312 0.78906 0.67969 1.3008 0.55078l13.891-3.4805 3.9297 13.77c0.14453 0.50391 0.60156 0.85156 1.125 0.85156s0.98438-0.34766 1.125-0.85156l3.9297-13.77 13.891 3.4805c0.51172 0.125 1.043-0.10156 1.3008-0.55469z"/>
        </g>

        <g id="ledspotlight" >
            <path d="M30.8702698,23.5477295c-1.0610352,0-1.9243164,0.8632813-1.9243164,1.9248047   c0,1.0605469,0.8632813,1.9238281,1.9243164,1.9238281s1.9243164-0.8632813,1.9243164-1.9238281   C32.7945862,24.4110107,31.9313049,23.5477295,30.8702698,23.5477295z"/>
            <path d="M46.0076599,3.791626H6.9924011c-2.4202881,0-4.3823853,1.9621582-4.3823853,4.3824463v27.713501   c0,2.420166,1.9620972,4.3823242,4.3823853,4.3823242h39.0152588c2.4202881,0,4.3823242-1.9621582,4.3823242-4.3823242V8.1740723   C50.3899841,5.7537842,48.427948,3.791626,46.0076599,3.791626z M28.8805237,36.8748779h-4.847168   c-0.2763672,0-0.5-0.2236328-0.5-0.5s0.2236328-0.5,0.5-0.5h4.847168c0.2763672,0,0.5,0.2236328,0.5,0.5   S29.1568909,36.8748779,28.8805237,36.8748779z M46.7350159,30.7947998c0,1.2041016-0.9799805,2.1845703-2.1845818,2.1845703   H8.4493713c-1.2045898,0-2.1845703-0.9804688-2.1845703-2.1845703V9.6307373c0-1.2041016,0.9799805-2.1845703,2.1845703-2.1845703   h36.1010628c1.2046013,0,2.1845818,0.9804688,2.1845818,2.1845703V30.7947998z"/>
            <path d="M44.5504341,8.446167H8.4493713c-0.6533203,0-1.1845703,0.53125-1.1845703,1.1845703v21.1640625   c0,0.6533203,0.53125,1.1845703,1.1845703,1.1845703h36.1010628c0.6533318,0,1.1845818-0.53125,1.1845818-1.1845703V9.6307373   C45.7350159,8.977417,45.2037659,8.446167,44.5504341,8.446167z M13.3893127,28.3963623   c-1.6123047,0-2.9243164-1.3115234-2.9243164-2.9238281s1.3120117-2.9248047,2.9243164-2.9248047   s2.9243164,1.3125,2.9243164,2.9248047S15.0016174,28.3963623,13.3893127,28.3963623z M13.3893127,17.8778076   c-1.6123047,0-2.9243164-1.3115234-2.9243164-2.9238281s1.3120117-2.9248047,2.9243164-2.9248047   s2.9243164,1.3125,2.9243164,2.9248047S15.0016174,17.8778076,13.3893127,17.8778076z M22.1300354,28.3963623   c-1.6123047,0-2.9243164-1.3115234-2.9243164-2.9238281s1.3120117-2.9248047,2.9243164-2.9248047   s2.9243164,1.3125,2.9243164,2.9248047S23.7423401,28.3963623,22.1300354,28.3963623z M22.1300354,17.8778076   c-1.6123047,0-2.9243164-1.3115234-2.9243164-2.9238281s1.3120117-2.9248047,2.9243164-2.9248047   s2.9243164,1.3125,2.9243164,2.9248047S23.7423401,17.8778076,22.1300354,17.8778076z M30.8702698,28.3963623   c-1.6123047,0-2.9243164-1.3115234-2.9243164-2.9238281s1.3120117-2.9248047,2.9243164-2.9248047   s2.9243164,1.3125,2.9243164,2.9248047S32.4825745,28.3963623,30.8702698,28.3963623z M30.8702698,17.8778076   c-1.6123047,0-2.9243164-1.3115234-2.9243164-2.9238281s1.3120117-2.9248047,2.9243164-2.9248047   s2.9243164,1.3125,2.9243164,2.9248047S32.4825745,17.8778076,30.8702698,17.8778076z M39.6105042,28.3963623   c-1.6123047,0-2.9243164-1.3115234-2.9243164-2.9238281s1.3120117-2.9248047,2.9243164-2.9248047   s2.9243164,1.3125,2.9243164,2.9248047S41.2228088,28.3963623,39.6105042,28.3963623z M39.6105042,17.8778076   c-1.6123047,0-2.9243164-1.3115234-2.9243164-2.9238281s1.3120117-2.9248047,2.9243164-2.9248047   s2.9243164,1.3125,2.9243164,2.9248047S41.2228088,17.8778076,39.6105042,17.8778076z"/>
            <path d="M22.1300354,13.0291748c-1.0610352,0-1.9243164,0.8632813-1.9243164,1.9248047   c0,1.0605469,0.8632813,1.9238281,1.9243164,1.9238281s1.9243164-0.8632813,1.9243164-1.9238281   C24.0543518,13.8924561,23.1910706,13.0291748,22.1300354,13.0291748z"/>
            <path d="M22.1300354,23.5477295c-1.0610352,0-1.9243164,0.8632813-1.9243164,1.9248047   c0,1.0605469,0.8632813,1.9238281,1.9243164,1.9238281s1.9243164-0.8632813,1.9243164-1.9238281   C24.0543518,24.4110107,23.1910706,23.5477295,22.1300354,23.5477295z"/>
            <path d="M13.3893127,13.0291748c-1.0610352,0-1.9243164,0.8632813-1.9243164,1.9248047   c0,1.0605469,0.8632813,1.9238281,1.9243164,1.9238281s1.9243164-0.8632813,1.9243164-1.9238281   C15.3136292,13.8924561,14.4503479,13.0291748,13.3893127,13.0291748z"/>
            <path d="M30.8702698,13.0291748c-1.0610352,0-1.9243164,0.8632813-1.9243164,1.9248047   c0,1.0605469,0.8632813,1.9238281,1.9243164,1.9238281s1.9243164-0.8632813,1.9243164-1.9238281   C32.7945862,13.8924561,31.9313049,13.0291748,30.8702698,13.0291748z"/>
            <path d="M13.3893127,23.5477295c-1.0610352,0-1.9243164,0.8632813-1.9243164,1.9248047   c0,1.0605469,0.8632813,1.9238281,1.9243164,1.9238281s1.9243164-0.8632813,1.9243164-1.9238281   C15.3136292,24.4110107,14.4503479,23.5477295,13.3893127,23.5477295z"/>
            <path d="M39.6105042,23.5477295c-1.0610352,0-1.9243164,0.8632813-1.9243164,1.9248047   c0,1.0605469,0.8632813,1.9238281,1.9243164,1.9238281s1.9243164-0.8632813,1.9243164-1.9238281   C41.5348206,24.4110107,40.6715393,23.5477295,39.6105042,23.5477295z"/>
            <path d="M39.6105042,13.0291748c-1.0610352,0-1.9243164,0.8632813-1.9243164,1.9248047   c0,1.0605469,0.8632813,1.9238281,1.9243164,1.9238281s1.9243164-0.8632813,1.9243164-1.9238281   C41.5348206,13.8924561,40.6715393,13.0291748,39.6105042,13.0291748z"/>
        </g>

        <g id="window101" stroke="0.5" fill="none" >
            <rect x="0" y="0" width="101" height="27" stroke="grey" />
            <rect x="0.5" y="10.5" width="100" height="4" fill="lightblue" />
        </g>
        <g id="window140" stroke="0.5" fill="none" >
            <rect x="0" y="0" width="140" height="27" stroke="grey" />
            <rect x="0.5" y="10.5" width="139" height="4" fill="lightblue" />
        </g>
        <g id="window176" stroke="0.5" fill="none" >
            <rect x="0" y="0" width="176" height="27" stroke="grey" />
            <rect x="0.5" y="10.5" width="175" height="4" fill="lightblue" />
            <rect x="86" y="10.5" width="4" height="4" fill="grey" />
        </g>
        <g id="window201" stroke="0.5" fill="none" >
            <rect x="0" y="0" width="201" height="27" stroke="grey" />
            <rect x="0.5" y="10.5" width="200" height="4" fill="lightblue" />
            <rect x="96" y="10.5" width="8" height="4" fill="grey" />
        </g>
        <g id="window310" stroke="0.5" fill="none" >
            <rect x="0" y="0" width="310" height="27" stroke="grey" />
            <rect x="0.5" y="10.5" width="310" height="4" fill="lightblue" />
            <rect x="101" y="10.5" width="4" height="4" fill="grey" />
            <rect x="202" y="10.5" width="4" height="4" fill="grey" />
        </g>

        <g id="roofpart_first_floor_east" >
            <use x="0" y="0" href="#rooftile" />
            <use x="83" y="0" href="#rooftile" />
            <use x="166" y="0" href="#rooftile" />
            <use x="249" y="0" href="#rooftile" />
            <use x="332" y="0" href="#rooftile" />
            <use x="387.2" y="0" href="#rooftile" />
            <use x="0" y="75" href="#rooftile" />
            <use x="83" y="75" href="#rooftile" />
            <use x="166" y="75" href="#rooftile" />
            <use x="249" y="75" href="#rooftile" />
            <use x="332" y="75" href="#rooftile" />
            <use x="387.2" y="75" href="#rooftile" />
        </g>
        <g id="roofpart_first_floor_west" >
            <use x="0" y="0" href="#rooftile" />
            <use x="83" y="0" href="#rooftile" />
            <use x="166" y="0" href="#rooftile" />
            <use x="249" y="0" href="#rooftile" />
            <use x="332" y="0" href="#rooftile" />
            <use x="415" y="0" href="#rooftile" />
            <use x="0" y="75" href="#rooftile" />
            <use x="83" y="75" href="#rooftile" />
            <use x="166" y="75" href="#rooftile" />
            <use x="249" y="75" href="#rooftile" />
            <use x="332" y="75" href="#rooftile" />
            <use x="415" y="75" href="#rooftile" />
        </g>
        <g id="roofpart_attic_floor_east" >
            <use x="0" y="0" href="#rooftile" />
            <use x="83" y="0" href="#rooftile" />
            <use x="166" y="0" href="#rooftile" />
            <use x="249" y="0" href="#rooftile" />
            <use x="332" y="0" href="#rooftile" />
            <use x="387.2" y="0" href="#rooftile" />
            <use x="0" y="75" href="#rooftile" />
            <use x="83" y="75" href="#rooftile" />
            <use x="166" y="75" href="#rooftile" />
            <use x="249" y="75" href="#rooftile" />
            <use x="332" y="75" href="#rooftile" />
            <use x="387.2" y="75" href="#rooftile" />
            <use x="0" y="150" href="#rooftile" />
            <use x="83" y="150" href="#rooftile" />
            <use x="166" y="150" href="#rooftile" />
            <use x="249" y="150" href="#rooftile" />
            <use x="332" y="150" href="#rooftile" />
            <use x="387.2" y="150" href="#rooftile" />
            <use x="0" y="225" href="#rooftile" />
            <use x="83" y="225" href="#rooftile" />
            <use x="166" y="225" href="#rooftile" />
            <use x="249" y="225" href="#rooftile" />
            <use x="332" y="225" href="#rooftile" />
            <use x="387.2" y="225" href="#rooftile" />
            <use x="0" y="300" href="#rooftile" />
            <use x="83" y="300" href="#rooftile" />
            <use x="166" y="300" href="#rooftile" />
            <use x="249" y="300" href="#rooftile" />
            <use x="332" y="300" href="#rooftile" />
            <use x="387.2" y="300" href="#rooftile" />
        </g>
        <g id="roofpart_attic_floor_west" >
            <use x="0" y="0" href="#rooftile" />
            <use x="83" y="0" href="#rooftile" />
            <use x="166" y="0" href="#rooftile" />
            <use x="249" y="0" href="#rooftile" />
            <use x="332" y="0" href="#rooftile" />
            <use x="415" y="0" href="#rooftile" />
            <use x="0" y="75" href="#rooftile" />
            <use x="83" y="75" href="#rooftile" />
            <use x="166" y="75" href="#rooftile" />
            <use x="249" y="75" href="#rooftile" />
            <use x="332" y="75" href="#rooftile" />
            <use x="415" y="75" href="#rooftile" />
            <use x="0" y="150" href="#rooftile" />
            <use x="83" y="150" href="#rooftile" />
            <use x="166" y="150" href="#rooftile" />
            <use x="249" y="150" href="#rooftile" />
            <use x="332" y="150" href="#rooftile" />
            <use x="415" y="150" href="#rooftile" />
            <use x="0" y="225" href="#rooftile" />
            <use x="83" y="225" href="#rooftile" />
            <use x="166" y="225" href="#rooftile" />
            <use x="249" y="225" href="#rooftile" />
            <use x="332" y="225" href="#rooftile" />
            <use x="415" y="225" href="#rooftile" />
            <use x="0" y="300" href="#rooftile" />
            <use x="83" y="300" href="#rooftile" />
            <use x="166" y="300" href="#rooftile" />
            <use x="249" y="300" href="#rooftile" />
            <use x="332" y="300" href="#rooftile" />
            <use x="415" y="300" href="#rooftile" />
        </g>
        <g id="roofpart_attic_floor_east_mid" >
            <use x="0" y="0" href="#rooftile" />
            <use x="83" y="0" href="#rooftile" />
            <use x="166" y="0" href="#rooftile" />
            <use x="221.3" y="0" href="#rooftile" />
        </g>
        <g id="roofpart_attic_floor_west_mid" >
            <use x="0" y="0" href="#rooftile" />
            <use x="83" y="0" href="#rooftile" />
            <use x="166" y="0" href="#rooftile" />
            <use x="0" y="75" href="#rooftile" />
            <use x="83" y="75" href="#rooftile" />
            <use x="166" y="75" href="#rooftile" />
            <use x="0" y="150" href="#rooftile" />
            <use x="83" y="150" href="#rooftile" />
            <use x="166" y="150" href="#rooftile" />
        </g>

        <g id="lightchain" >
            <use x="0" y="0" href="#lightchain_part" />
            <use x="93" y="0" href="#lightchain_part" />
            <use x="186" y="0" href="#lightchain_part" />
            <use x="279" y="0" href="#lightchain_part" />
        </g>

    </defs>

    <use id="xyz" x="0" y="30" href="#lightchain" stroke="black" transform="scale ( 100 )" />

    <g id="frame">
		<rect x="0" y="0" width="1800" height="1834" stroke="blue" stroke-width="1" fill="none"/>
    </g>

    <g id="attic_floor.button" transform="translate ( 20, 270 )" >
        <rect id="attic_floor.button.background" width="220" height="50" style="fill:#c8c8c8;fill-opacity:1;stroke:none;stroke-width:0;stroke-miterlimit:4;stroke-dasharray:none;stroke-opacity:1" />
        <text id="attic_floor.button.text" x="12" y="35" style="font-style:normal;font-weight:normal;font-size:30px;line-height:1.25;font-family:sans-serif;letter-spacing:0px;word-spacing:0px;fill:#000000;fill-opacity:1;stroke:none;stroke-width:1" >
            <tspan >Dachgeschoss</tspan>
        </text>
    </g>
    <g id="first_floor.button" transform="translate ( 20, 340 )" >
        <rect id="first_floor.button.background" width="220" height="50" style="fill:#c8c8c8;fill-opacity:1;stroke:none;stroke-width:0;stroke-miterlimit:4;stroke-dasharray:none;stroke-opacity:1" />
        <text id="first_floor.button.text" x="12" y="35" style="font-style:normal;font-weight:normal;font-size:30px;line-height:1.25;font-family:sans-serif;letter-spacing:0px;word-spacing:0px;fill:#000000;fill-opacity:1;stroke:none;stroke-width:1" >
            <tspan >Obergeschoss</tspan>
        </text>
    </g>
    <g id="ground_floor.button" transform="translate ( 20, 410 )" >
        <rect id="ground_floor.button.background" width="220" height="50" style="fill:#c8c8c8;fill-opacity:1;stroke:none;stroke-width:0;stroke-miterlimit:4;stroke-dasharray:none;stroke-opacity:1" />
        <text id="ground_floor.button.text" x="12" y="35" style="font-style:normal;font-weight:normal;font-size:30px;line-height:1.25;font-family:sans-serif;letter-spacing:0px;word-spacing:0px;fill:#000000;fill-opacity:1;stroke:none;stroke-width:1" >
            <tspan >Erdgeschoss</tspan>
        </text>
    </g>

    <g id="garage" transform="translate ( 0, 904 )" opacity="1" >

        <g id="walls" stroke="black" fill="black" stroke-width="1" >
            <!-- north -->
            <rect x="0" y="0" width="15" height="730" />
            <!-- east -->
            <rect x="0" y="0" width="24" height="15" />
            <rect x="125" y="0" width="50" height="15" />
            <rect x="276" y="0" width="24" height="15" />
            <!-- south -->
            <rect x="285" y="0" width="15" height="730" />
            <!-- west -->
            <rect x="0" y="715" width="31" height="15" />
            <rect x="268.5" y="715" width="31.5" height="15" />
        </g>

        <g id="doors" stroke="black" fill="none" stroke-width="1" >
            <path d="M 24 0 v 101 a 101 101 90 0 0 101 -101 v 0 v 15 h -101 v -10 h 101" />
            <rect x="26" y="710" width="247.5" height="4" />
        </g>

        <g id="windows" stroke="black" fill="none" stroke-width="0.2" >
            <path d="M 175 6 h 101 m 0 3 h -101" />
        </g>

        <g id="light.sonoff_garage_lamp" > <use x="257" y="730" href="#ledspotlight" /> </g>

        <text id="sensor.relay_garage_temperature" x="120" y="400" class="thermostat-text" ><tspan>°C</tspan></text>
        <text id="sensor.relay_garage_humidity" x="120" y="425" class="thermostat-text" ><tspan>%</tspan></text>

    </g>

    <g id="ground_floor" transform="translate ( 300, 200 )" opacity="1" >

        <g id="outer_walls" stroke="black" fill="black" stroke-width="1" >
            <!-- north -->
            <rect x="0" y="60" width="27" height="436.5" />
            <rect x="0" y="597.5" width="27" height="436.5" />
            <!-- east -->
            <rect x="0" y="60" width="128" height="27" />
            <rect x="304" y="60" width="138" height="27" />
            <rect x="415" y="0" width="27" height="60" />
            <rect x="752" y="0" width="27" height="60" />
            <rect x="752" y="60" width="138" height="27" />
            <rect x="1066" y="60" width="128" height="27" />
            <!-- south -->
            <rect x="1167" y="60" width="27" height="87" />
            <rect x="1167" y="348" width="27" height="398" />
            <rect x="1167" y="947" width="27" height="87" />
            <!-- west -->
            <rect x="0" y="1007" width="114" height="27" />
            <rect x="215" y="1007" width="50" height="27" />
            <rect x="367" y="1007" width="88" height="27" />
            <rect x="427" y="867" width="100" height="27" />
            <rect x="667" y="867" width="100" height="27" />
            <rect x="740" y="867" width="27" height="167" />
            <rect x="740" y="1007" width="88" height="27" />
            <rect x="929" y="1007" width="50" height="27" />
            <rect x="1080" y="1007" width="114" height="27" />
        </g>

        <g id="inner_main_walls" stroke="black" fill="black" stroke-width="1" >
            <!-- inner main walls -->
            <rect x="427" y="87" width="15" height="80" />
            <rect x="427" y="397" width="15" height="100" />
            <rect x="427" y="667" width="15" height="200" />
            <rect x="752" y="87" width="15" height="410" />
            <rect x="752" y="667" width="15" height="200" />
        </g>

        <g id="inner_plaster_walls" stroke="black" fill="black" stroke-width="1" >
            <!-- inner plaster -->
            <rect x="27" y="457" width="80" height="8" />
            <rect x="185" y="457" width="242" height="8" />
            <rect x="269" y="465" width="8" height="83" />
            <rect x="269" y="626" width="8" height="73" />
            <rect x="27" y="699" width="285" height="8" />
            <rect x="402" y="699" width="25" height="8" />
            <rect x="187" y="707" width="8" height="160" />
            <rect x="187" y="867" width="58" height="8" />
            <rect x="237" y="867" width="8" height="22" />
            <rect x="237" y="967" width="8" height="40" />
        </g>

        <g id="windows" stroke="black" fill="none" stroke-width="0.2" >
            <!-- west -->
            <use transform="translate ( 114, 1007 )" href="#window101" />
            <use transform="translate ( 265.5, 1007 )" href="#window101" />
            <use transform="translate ( 828, 1007 )" href="#window101" />
            <use transform="translate ( 979, 1007 )" href="#window101" />
            <use transform="translate ( 527, 867 )" href="#window140" />
            <!-- south -->
            <use transform="translate(1167,947) rotate ( -90 )" href="#window201" />
            <use transform="translate(1167,348) rotate ( -90 )" href="#window201" />
            <!-- east -->
            <use transform="translate(128,60)" href="#window176" />
            <use transform="translate(890,60)" href="#window176" />
            <use transform="translate(442,0)" href="#window310" />
        </g>

        <g id="room.stairs_groundfloor" > <rect x="442" y="708" width="310" height="159" /> </g>
        <g id="room.dining1" > <rect x="442" y="397" width="310" height="311" /> </g>
        <g id="room.dining2" > <rect x="442" y="27" width="155" height="370" /> </g>
        <g id="room.dining3" > <rect x="597" y="27" width="155" height="370" /> </g>
        <g id="room.corridor" > <rect x="277" y="465" width="150" height="234" /> </g>
        <g id="room.shower" >
            <rect x="27" y="707" width="160" height="300" />
            <rect x="187" y="875" width="50" height="132" />
        </g>
        <g id="room.hall" >
            <rect x="195" y="707" width="50" height="160" />
            <rect x="245" y="707" width="182" height="300" />
        </g>
        <g id="room.lounge_couch" > <rect x="767" y="87" width="400" height="495" /> </g>
        <g id="room.lounge_table" > <rect x="767" y="582" width="400" height="425" /> </g>

        <g id="windowdoors" stroke="black" fill="none" stroke-width="0.2" stroke-dasharray="10,5" >
            <!-- west -->
            <path d="M 128 73 v 0 88 a 88 88 90 0 0 88 -88 a 88 88 90 0 0 88 88 v -88" />
            <path d="M 890 73 v 0 88 a 88 88 90 0 0 88 -88 a 88 88 90 0 0 88 88 v -88" />
            <path d="M 444 13 v 0 100 a 100 100 90 0 0 100 -100" />
        </g>

        <g id="doors" stroke="black" fill="none" stroke-width="1" >
            <path d="M 107 465 v -78 a 78 78 90 0 1 78 78" />
            <path d="M 277 548 h -78 a 78 78 90 0 0 78 78" />
            <path d="M 402 699 v 90 a 90 90 90 0 1 -90 -90" />
            <path d="M 245 967 h -78 a 78 78 90 0 1 78 -78" />
            <path d="M 428 1005 h -110 a 110 110 90 0 1 110 -110 v 0 h 26 v 111 h -26 v -111" />
            <path d="M 27 497.5 h 99 a 99 99 90 0 1 -99 99 h -26 v -99 h 26 v 99" />
        </g>

        <g id="stairs" >
        </g>

        <use id="light.shelly_terrace_lamp1" x="350" y="57" href="#walllight_up" />
        <use id="light.shelly_terrace_lamp2" x="840" y="57" href="#walllight_up" />
        <use id="light.relay_backyard_lamp" x="-5" y="440" href="#walllight_left" />
        <use id="light.sonoff_yardgate_lamp" x="1170" y="1040" href="#ledspotlight" />
        <use id="light.shelly_lounge_schwibbogen1_switch_0" x="1010" y="1005" href="#schwibbogen" />
        <use id="light.shelly_lounge_schwibbogen2_switch_0" x="860" y="1005" href="#schwibbogen" />
        <use id="light.shelly_entrance_star_switch_0" x="550" y="910" href="#star" />
        <use id="light.shelly_lounge_blackbowl_switch_0" x="1100" y="470" href="#lightbulb" />
        <use id="light.shelly_lounge_readinglamp_switch_0" x="1070" y="500" href="#lightbulb" />
        <use id="light.shelly_lounge_whiteball_switch_0" x="1100" y="940" href="#lightbulb" />
        <use id="light.led_corridor_led" x="330" y="470" href="#lightbulb" />
        <use id="light.led_kitchen_led" x="30" y="330" href="#lightbulb" />
        <use id="light.relay_dining1_lamp" x="700" y="440" href="#lightbulb" />
        <use id="light.relay_dining2_lamp" x="700" y="685" href="#lightbulb" />

        <use id="light.shelly_entrance_drops_switch_0a" x="30" y="1035" href="#lightchain" />
        <use id="light.shelly_entrance_drops_switch_0b" x="770" y="1035" href="#lightchain" />

        <use id="light.shelly_treppe_switch_0_groundfloor" x="445" y="790" href="#walllight_right" />
        <use id="light.shelly_esszimmer2_switch_0" x="445" y="210" href="#walllight_right" />
        <use id="light.shelly_esszimmer2_switch_1" x="749" y="210" href="#walllight_left" />
        <use id="light.shelly_shower_socket" x="80" y="800" href="#ceilinglight" />
        <use id="light.shelly_flur_switch_0" x="300" y="830" href="#ceilinglight" />
        <use id="light.shelly_korridor_switch_0" x="330" y="570" href="#ceilinglight" />
        <use id="light.shelly_esszimmer1_switch_0" x="575" y="560" href="#ceilinglight" />
        <use id="light.shelly_wohnzimmer_switch_0" x="970" y="330" href="#ceilinglight" />
        <use id="light.shelly_wohnzimmer_switch_1" x="970" y="800" href="#ceilinglight" />

        <text id="sensor.thermostat_dusche_temperature" x="130" y="900" class="thermostat-text" ><tspan>°C</tspan></text>
        <text id="sensor.thermostat_dusche_humidity" x="130" y="925" class="thermostat-text" ><tspan>%</tspan></text>
        <text id="sensor.thermostat_esszimmer_temperature" x="450" y="450" class="thermostat-text" ><tspan>°C</tspan></text>
        <text id="sensor.thermostat_esszimmer_humidity" x="450" y="475" class="thermostat-text" ><tspan>%</tspan></text>
        <text id="sensor.thermostat_flur_temperature" x="205" y="735" class="thermostat-text" ><tspan>°C</tspan></text>
        <text id="sensor.thermostat_flur_humidity" x="205" y="760" class="thermostat-text" ><tspan>%</tspan></text>
        <text id="sensor.thermostat_hauswirtschaft_temperature" x="180" y="660" class="thermostat-text" ><tspan>°C</tspan></text>
        <text id="sensor.thermostat_hauswirtschaft_humidity" x="180" y="685" class="thermostat-text" ><tspan>%</tspan></text>
        <text id="sensor.thermostat_kuche_temperature" x="195" y="420" class="thermostat-text" ><tspan>°C</tspan></text>
        <text id="sensor.thermostat_kuche_humidity" x="195" y="445" class="thermostat-text" ><tspan>%</tspan></text>
        <text id="sensor.thermostat_wohnzimmer_temperature" x="775" y="450" class="thermostat-text" ><tspan>°C</tspan></text>
        <text id="sensor.thermostat_wohnzimmer_humidity" x="775" y="475" class="thermostat-text" ><tspan>%</tspan></text>

    </g>

    <g id="first_floor" transform="translate ( 300, 200 )" opacity="1" >

        <g id="walls_under_roof"  stroke="lightgrey" fill="lightgrey" stroke-width="1" >
            <!-- east -->
            <rect x="0" y="60" width="442" height="27" />
            <rect x="415" y="0" width="27" height="60" />
            <rect x="752" y="0" width="27" height="60" />
            <rect x="752" y="60" width="442" height="27" />
            <rect x="427" y="87" width="15" height="91" />
            <rect x="752" y="87" width="15" height="91" />
            <!-- north -->
            <rect x="0" y="60" width="27" height="118" />
            <rect x="0" y="916" width="27" height="118" />
            <!-- south -->
            <rect x="1167" y="60" width="27" height="118" />
            <rect x="1167" y="916" width="27" height="118" />
            <!-- west -->
            <rect x="0" y="1007" width="454" height="27" />
            <rect x="427" y="916" width="27" height="118" />
            <rect x="740" y="916" width="27" height="118" />
            <rect x="740" y="1007" width="454" height="27" />
        </g>

        <g id="outer_walls"  stroke="black" fill="black" stroke-width="1" >
            <!-- north -->
            <rect x="0" y="178" width="27" height="168" />
            <rect x="0" y="447" width="27" height="200" />
            <rect x="0" y="748" width="27" height="168" />
            <!-- south -->
            <rect x="1167" y="178" width="27" height="168" />
            <rect x="1167" y="447" width="27" height="200" />
            <rect x="1167" y="748" width="27" height="168" />
            <!-- west -->
            <rect x="427" y="867" width="27" height="49" />
            <rect x="427" y="867" width="340" height="27" />
            <rect x="740" y="867" width="27" height="49" />
        </g>

        <g id="inner_plaster_walls" stroke="black" fill="black" stroke-width="1" >
            <rect x="0" y="593" width="442" height="8" />
            <rect x="752" y="543" width="442" height="8" />
        </g>

        <g id="inner_main_walls" stroke="black" fill="black" stroke-width="1" >
            <!-- inner main walls -->
            <rect x="427" y="178" width="15" height="197" />
            <rect x="427" y="463" width="15" height="146" />
            <rect x="427" y="684" width="15" height="212" />
            <rect x="752" y="178" width="15" height="197" />
            <rect x="752" y="463" width="15" height="146" />
            <rect x="752" y="697" width="15" height="200" />
        </g>

        <g id="jamb_wall" stroke="black" fill="black" stroke-width="1" >
            <rect x="0" y="178" width="442" height="3"/>
            <rect x="752" y="178" width="442" height="3" />
            <rect x="0" y="913" width="442" height="3" />
            <rect x="752" y="913" width="442" height="3" />
        </g>

        <g id="gallery" stroke="black" fill="black" stroke-width="1" >
            <rect x="427" y="347" width="340" height="3" />
            <rect x="427" y="705" width="340" height="3" />
        </g>

        <g id="doors" stroke="black" fill="none" stroke-width="1" >
            <path d="M 442 463 h -88 a 88 88 90 0 1 88 -88" />
            <path d="M 442 609 h -76 a 76 76 90 0 0 76 76" />
            <path d="M 752 463 h 88 a 88 88 90 0 0 -88 -88" />
            <path d="M 752 609 h 88 a 88 88 90 0 1 -88 88" />
        </g>

        <g id="windows" stroke="black" fill="none" stroke-width="0.2" >
            <use transform="translate ( 27, 346 ) rotate ( 90 )" href="#window101" />
            <use transform="translate ( 27, 647 ) rotate ( 90 )" href="#window101" />
            <use transform="translate ( 1167, 447 ) rotate ( -90 )" href="#window101" />
            <use transform="translate ( 1167, 748 ) rotate ( -90 )" href="#window101" />
            <use transform="translate(442,0)" href="#window310" />
        </g>

        <g id ="stairs" >
        </g>

        <g id="room.office" > <rect x="27" y="181" width="400" height="412" /> </g>
        <g id="room.bath" > <rect x="27" y="601" width="400" height="312" /> </g>
        <g id="room.nursery" > <rect x="767" y="181" width="400" height="362" /> </g>
        <g id="room.bedroom" > <rect x="767" y="551" width="400" height="362" /> </g>
        <g id="room.gallery" > <rect x="442" y="350" width="310" height="355" /> </g>
        <g id="room.stairs_firstfloor" > <rect x="442" y="708" width="310" height="159" /> </g>

        <use id="light.sonoff_gallery1_socket" x="440" y="540" href="#lightbulb" />
        <use id="light.sonoff_corridor_lamp" x="40" y="460" href="#lightbulb" />
        <use id="light.sonoff_bedroom_socket" x="940" y="550" href="#lightbulb" />

        <use id="light.shelly_treppe_switch_0_firstfloor" x="445" y="790" href="#walllight_right" />

        <use id="light.shelly_bath_socket" x="190" y="760" href="#ceilinglight" />
        <use id="light.shelly_arbeitszimmer_switch_0" x="190" y="380" href="#ceilinglight" />
        <use id="light.shelly_kinderzimmer_switch_0" x="960" y="350" href="#ceilinglight" />
        <use id="light.shelly_schlafzimmer_switch_0" x="960" y="700" href="#ceilinglight" />
        <use id="light.shelly_galerie_switch_0" x="575" y="500" href="#ceilinglight" />

        <text id="sensor.thermostat_arbeitszimmer_temperature" x="340" y="335" class="thermostat-text" ><tspan>°C</tspan></text>
        <text id="sensor.thermostat_arbeitszimmer_humidity" x="340" y="360" class="thermostat-text" ><tspan>%</tspan></text>
        <text id="sensor.thermostat_bad_temperature" x="340" y="630" class="thermostat-text" ><tspan>°C</tspan></text>
        <text id="sensor.thermostat_bad_humidity" x="340" y="655" class="thermostat-text" ><tspan>%</tspan></text>
        <text id="sensor.thermostat_galerie_temperature" x="455" y="500" class="thermostat-text" ><tspan>°C</tspan></text>
        <text id="sensor.thermostat_galerie_humidity" x="455" y="525" class="thermostat-text" ><tspan>%</tspan></text>
        <text id="sensor.thermostat_kinderzimmer_temperature" x="780" y="340" class="thermostat-text" ><tspan>°C</tspan></text>
        <text id="sensor.thermostat_kinderzimmer_humidity" x="780" y="365" class="thermostat-text" ><tspan>%</tspan></text>
        <text id="sensor.thermostat_schlafzimmer_temperature" x="780" y="725" class="thermostat-text" ><tspan>°C</tspan></text>
        <text id="sensor.thermostat_schlafzimmer_humidity" x="780" y="750" class="thermostat-text" ><tspan>%</tspan></text>

        <g id="roof" stroke="none" fill="lightgrey" stroke-width="0.5" >
            <use transform="translate ( -38, 13)" href="#roofpart_first_floor_east" />
            <use transform="translate ( 744, 13)" href="#roofpart_first_floor_east" />
            <use transform="translate ( -38, 906 )" href="#roofpart_first_floor_west" />
            <use transform="translate ( 715, 906 )" href="#roofpart_first_floor_west" />
        </g>

    </g>

    <g id="attic_floor" transform="translate ( 300, 200 )" opacity="1" >

        <g id="walls_under_roof"  stroke="lightgrey" fill="lightgrey" stroke-width="1" >
            <!-- east -->
            <rect x="0" y="60" width="442" height="27" />
            <rect x="415" y="0" width="27" height="60" />
            <rect x="752" y="0" width="27" height="60" />
            <rect x="752" y="60" width="442" height="27" />
            <!-- north -->
            <rect x="0" y="60" width="27" height="345" />
            <rect x="0" y="689" width="27" height="345" />
            <!-- south -->
            <rect x="1167" y="60" width="27" height="345" />
            <rect x="1167" y="689" width="27" height="345" />
            <!-- west -->
            <rect x="0" y="1007" width="454" height="27" />
            <rect x="427" y="867" width="27" height="167" />
            <rect x="427" y="867" width="340" height="27" />
            <rect x="740" y="867" width="27" height="167" />
            <rect x="740" y="1007" width="454" height="27" />
        </g>

        <g id="outer_walls"  stroke="black" fill="black" stroke-width="1" >
            <!-- north -->
            <rect x="0" y="405" width="27" height="284" />
            <!-- south -->
            <rect x="1167" y="405" width="27" height="284" />
            <!-- west -->
        </g>

        <g id="attic" stroke="black" fill="black" stroke-width="1" >
            <rect x="0" y="403" width="1194" height="3" />
            <rect x="0" y="687" width="1194" height="3" />
        </g>

        <g id="room.attic" > <rect x="27" y="406" width="1140" height="281" /> </g>

        <use id="light.shelly_roof_socket" x="440" y="540" href="#ceilinglight" />

        <text id="sensor.dht22_roof_temperature" x="640" y="550" class="thermostat-text" ><tspan>°C</tspan></text>
        <text id="sensor.dht22_roof_humidity" x="640" y="580" class="thermostat-text" ><tspan>%</tspan></text>

        <g id="roof" stroke="none" fill="lightgrey" stroke-width="0.5" >
            <use transform="translate ( -38, 13)" href="#roofpart_attic_floor_east" />
            <use transform="translate ( 744, 13)" href="#roofpart_attic_floor_east" />
            <use transform="translate ( 436, 313 )" href="#roofpart_attic_floor_east_mid" />
            <use transform="translate ( 463, 681 )" href="#roofpart_attic_floor_west_mid" />
            <use transform="translate ( -38, 681 )" href="#roofpart_attic_floor_west" />
            <use transform="translate ( 715, 681 )" href="#roofpart_attic_floor_west" />
        </g>

    </g>

</svg>