<?xml version="1.0" encoding="utf-8"?>
<!-- created manually  -->
<!-- https://www.grundriss-butler.de/wie-zeichne-ich -->
<!-- https://developer.mozilla.org/en-US/docs/Web/SVG/Tutorial/Patterns -->
<!DOCTYPE svg PUBLIC "-//W3C//DTD SVG 1.1//EN" "http://www.w3.org/Graphics/SVG/1.1/DTD/svg11.dtd">
<svg version="1.1" xmlns="http://www.w3.org/2000/svg" xmlns:xlink="http://www.w3.org/1999/xlink"
        x="0px" y="0px" width="1500" height="1434"
        viewBox="0 0 1500 1434"
	    xml:space="preserve" >

    <defs>

        <path id="lightbulb" transform="scale ( 2 )" d="M12,2A7,7 0 0,0 5,9C5,11.38 6.19,13.47 8,14.74V17A1,1 0 0,0 9,18H15A1,1 0 0,0 16,17V14.74C17.81,13.47 19,11.38 19,9A7,7 0 0,0 12,2M9,21A1,1 0 0,0 10,22H14A1,1 0 0,0 15,21V20H9V21Z" />
        <path id="lightbulb-outline" transform="scale ( 2 )" d="M12,2A7,7 0 0,1 19,9C19,11.38 17.81,13.47 16,14.74V17A1,1 0 0,1 15,18H9A1,1 0 0,1 8,17V14.74C6.19,13.47 5,11.38 5,9A7,7 0 0,1 12,2M9,21V20H15V21A1,1 0 0,1 14,22H10A1,1 0 0,1 9,21M12,4A5,5 0 0,0 7,9C7,11.05 8.23,12.81 10,13.58V16H14V13.58C15.77,12.81 17,11.05 17,9A5,5 0 0,0 12,4Z" />

        <g id="window101" stroke="0.5" fill="none" >
            <rect x="0" y="0" width="101" height="27" stroke="grey" />
            <rect x="0.5" y="10.5" width="100" height="4" fill="lightblue" />
        </g>
        <g id="window140" stroke="0.5" fill="none" >
            <rect x="0" y="0" width="140" height="27" stroke="grey" />
            <rect x="0.5" y="10.5" width="139" height="4" fill="lightblue" />
        </g>
        <g id="window176" stroke="0.5" fill="none" >
            <rect x="0" y="0" width="176" height="27" stroke="grey" />
            <rect x="0.5" y="10.5" width="175" height="4" fill="lightblue" />
            <rect x="86" y="10.5" width="4" height="4" fill="grey" />
        </g>
        <g id="window201" stroke="0.5" fill="none" >
            <rect x="0" y="0" width="201" height="27" stroke="grey" />
            <rect x="0.5" y="10.5" width="200" height="4" fill="lightblue" />
            <rect x="96" y="10.5" width="8" height="4" fill="grey" />
        </g>
        <g id="window310" stroke="0.5" fill="none" >
            <rect x="0" y="0" width="310" height="27" stroke="grey" />
            <rect x="0.5" y="10.5" width="310" height="4" fill="lightblue" />
            <rect x="101" y="10.5" width="4" height="4" fill="grey" />
            <rect x="202" y="10.5" width="4" height="4" fill="grey" />
        </g>

    </defs>

    <g id="frame">
		<rect x="0" y="0" width="1494" height="1434" stroke="blue" stroke-width="1" fill="none" />
    </g>

    <g id="garage" transform="translate ( 0, 704 )" >
        <g id="walls" stroke="black" fill="black" stroke-width="1" >
            <!-- north -->
            <rect x="0" y="0" width="15" height="730" />
            <!-- east -->
            <rect x="0" y="0" width="24" height="15" />
            <rect x="125" y="0" width="50" height="15" />
            <rect x="276" y="0" width="24" height="15" />
            <!-- south -->
            <rect x="285" y="0" width="15" height="730" />
            <!-- west -->
            <rect x="0" y="715" width="31" height="15" />
            <rect x="268.5" y="715" width="31.5" height="15" />
        </g>
        <g id="doors" stroke="black" fill="none" stroke-width="1" >
            <path d="M 24 0 v 101 a 101 101 90 0 0 101 -101 v 0 v 15 h -101 v -10 h 101" />
            <rect x="26" y="710" width="247.5" height="4" />
        </g>
        <g id="windows" stroke="black" fill="none" stroke-width="0.2" >
            <path d="M 175 6 h 101 m 0 3 h -101" />
        </g>
        <g id="light.sonoff_garage_lamp" > <use x="295" y="680" href="#lightbulb" /> </g>
    </g>

    <g id="groundlevel" transform="translate ( 300, 0 )" >

        <g id="outer_walls" stroke="black" fill="black" stroke-width="1" >
            <!-- north -->
            <rect x="0" y="60" width="27" height="436.5" />
            <rect x="0" y="597.5" width="27" height="436.5" />
            <!-- east -->
            <rect x="0" y="60" width="128" height="27" />
            <rect x="304" y="60" width="138" height="27" />
            <rect x="415" y="0" width="27" height="60" />
            <rect x="752" y="0" width="27" height="60" />
            <rect x="752" y="60" width="138" height="27" />
            <rect x="1066" y="60" width="128" height="27" />
            <!-- south -->
            <rect x="1167" y="60" width="27" height="87" />
            <rect x="1167" y="348" width="27" height="398" />
            <rect x="1167" y="947" width="27" height="87" />
            <!-- west -->
            <rect x="0" y="1007" width="114" height="27" />
            <rect x="215" y="1007" width="50" height="27" />
            <rect x="367" y="1007" width="88" height="27" />
            <rect x="427" y="867" width="100" height="27" />
            <rect x="667" y="867" width="100" height="27" />
            <rect x="740" y="867" width="27" height="167" />
            <rect x="740" y="1007" width="88" height="27" />
            <rect x="929" y="1007" width="50" height="27" />
            <rect x="1080" y="1007" width="114" height="27" />
        </g>

        <g id="inner_main_walls" stroke="black" fill="black" stroke-width="1" >
            <!-- inner main walls -->
            <rect x="427" y="87" width="15" height="80" />
            <rect x="427" y="397" width="15" height="100" />
            <rect x="427" y="667" width="15" height="200" />
            <rect x="752" y="87" width="15" height="410" />
            <rect x="752" y="667" width="15" height="200" />
        </g>

        <g id="inner_plaster_walls" stroke="black" fill="black" stroke-width="1" >
            <!-- inner plaster -->
            <rect x="27" y="457" width="80" height="8" />
            <rect x="185" y="457" width="242" height="8" />
            <rect x="269" y="465" width="8" height="83" />
            <rect x="269" y="626" width="8" height="73" />
            <rect x="27" y="699" width="285" height="8" />
            <rect x="402" y="699" width="25" height="8" />
            <rect x="187" y="707" width="8" height="160" />
            <rect x="187" y="867" width="58" height="8" />
            <rect x="237" y="867" width="8" height="22" />
            <rect x="237" y="967" width="8" height="40" />
        </g>

        <g id="doors" stroke="black" fill="none" stroke-width="1" >
            <path d="M 107 465 v -78 a 78 78 90 0 1 78 78" />
            <path d="M 277 548 h -78 a 78 78 90 0 0 78 78" />
            <path d="M 402 699 v 90 a 90 90 90 0 1 -90 -90" />
            <path d="M 245 967 h -78 a 78 78 90 0 1 78 -78" />
            <path d="M 428 1005 h -110 a 110 110 90 0 1 110 -110 v 0 h 26 v 111 h -26 v -111" />
            <path d="M 27 497.5 h 99 a 99 99 90 0 1 -99 99 h -26 v -99 h 26 v 99" />
        </g>

        <g id="windows" stroke="black" fill="none" stroke-width="0.2" >
            <!-- west -->
            <use transform="translate ( 114, 1007 )" href="#window101" />
            <use transform="translate ( 265.5, 1007 )" href="#window101" />
            <use transform="translate ( 828, 1007 )" href="#window101" />
            <use transform="translate ( 979, 1007 )" href="#window101" />
            <use transform="translate ( 527, 867 )" href="#window140" />
            <!-- south -->
            <use transform="translate(1167,947) rotate ( -90 )" href="#window201" />
            <use transform="translate(1167,348) rotate ( -90 )" href="#window201" />
            <!-- east -->
            <use transform="translate(128,60)" href="#window176" />
            <use transform="translate(890,60)" href="#window176" />
            <use transform="translate(442,0)" href="#window310" />
        </g>

        <g id="windowdoors" stroke="black" fill="none" stroke-width="0.2" stroke-dasharray="10,5" >
            <!-- west -->
            <path d="M 128 73 v 0 88 a 88 88 90 0 0 88 -88 a 88 88 90 0 0 88 88 v -88" />
            <path d="M 890 73 v 0 88 a 88 88 90 0 0 88 -88 a 88 88 90 0 0 88 88 v -88" />
            <path d="M 444 13 v 0 100 a 100 100 90 0 0 100 -100" />
        </g>

        <g id="stairs" >
        </g>

        <use id="light.shelly_terrace_lamp1" x="320" y="5" href="#lightbulb" />
        <use id="light.shelly_terrace_lamp2" x="840" y="5" href="#lightbulb" />
        <use id="light.relay_backyard_lamp" x="-50" y="420" href="#lightbulb" />
        <use id="light.sonoff_yardgate_lamp" x="1150" y="1040" href="#lightbulb" />
        <use id="light.rfhub_lounge_schwibbogen1" x="1010" y="960" href="#lightbulb" />
        <use id="light.rfhub_lounge_schwibbogen2" x="860" y="960" href="#lightbulb" />
        <use id="light.rfhub_lounge_star" x="580" y="930" href="#lightbulb" />
        <use id="light.rfhub_lounge_drops1" x="215" y="1040" href="#lightbulb" />
        <use id="light.rfhub_lounge_drops2" x="935" y="1040" href="#lightbulb" />
        <use id="light.rfhub_lounge_lamploungeblackbowl" x="1100" y="470" href="#lightbulb" />
        <use id="light.rfhub_lounge_lamploungereading" x="1070" y="500" href="#lightbulb" />
        <use id="light.rfhub_lounge_lamploungewhiteball" x="1100" y="940" href="#lightbulb" />
        <use id="light.led_corridor_led" x="330" y="470" href="#lightbulb" />
        <use id="light.led_kitchen_led" x="30" y="330" href="#lightbulb" />
        <use id="light.relay_dining1_lamp" x="700" y="440" href="#lightbulb" />
        <use id="light.relay_dining2_lamp" x="700" y="685" href="#lightbulb" />
        <use id="light.shelly_shower_socket" x="80" y="800" href="#lightbulb" />

        <text id="sensor.thermostat_dusche_temperature" x="130" y="900" class="thermostat-text" ><tspan>°C</tspan></text>
        <text id="sensor.thermostat_dusche_humidity" x="130" y="925" class="thermostat-text" ><tspan>%</tspan></text>
        <text id="sensor.thermostat_esszimmer_temperature" x="450" y="450" class="thermostat-text" ><tspan>°C</tspan></text>
        <text id="sensor.thermostat_esszimmer_humidity" x="450" y="475" class="thermostat-text" ><tspan>%</tspan></text>
        <text id="sensor.thermostat_flur_temperature" x="205" y="735" class="thermostat-text" ><tspan>°C</tspan></text>
        <text id="sensor.thermostat_flur_humidity" x="205" y="760" class="thermostat-text" ><tspan>%</tspan></text>
        <text id="sensor.thermostat_hauswirtschaft_temperature" x="180" y="660" class="thermostat-text" ><tspan>°C</tspan></text>
        <text id="sensor.thermostat_hauswirtschaft_humidity" x="180" y="685" class="thermostat-text" ><tspan>%</tspan></text>
        <text id="sensor.thermostat_kuche_temperature" x="195" y="420" class="thermostat-text" ><tspan>°C</tspan></text>
        <text id="sensor.thermostat_kuche_humidity" x="195" y="445" class="thermostat-text" ><tspan>%</tspan></text>
        <text id="sensor.thermostat_wohnzimmer_temperature" x="775" y="450" class="thermostat-text" ><tspan>°C</tspan></text>
        <text id="sensor.thermostat_wohnzimmer_humidity" x="775" y="475" class="thermostat-text" ><tspan>%</tspan></text>

    </g>

</svg>